<svg width="30" height="31" viewBox="0 0 30 31" fill="none" xmlns="http://www.w3.org/2000/svg">
<g id="Icon / grid">
<g id="Vector">
<path d="M5 6.75C5 7.08152 5.1317 7.39946 5.36612 7.63388C5.60054 7.8683 5.91848 8 6.25 8C6.58152 8 6.89946 7.8683 7.13388 7.63388C7.3683 7.39946 7.5 7.08152 7.5 6.75C7.5 6.41848 7.3683 6.10054 7.13388 5.86612C6.89946 5.6317 6.58152 5.5 6.25 5.5C5.91848 5.5 5.60054 5.6317 5.36612 5.86612C5.1317 6.10054 5 6.41848 5 6.75Z" stroke="#262626" stroke-width="1.875" stroke-linecap="round" stroke-linejoin="round"/>
<path d="M13.75 6.75C13.75 7.08152 13.8817 7.39946 14.1161 7.63388C14.3505 7.8683 14.6685 8 15 8C15.3315 8 15.6495 7.8683 15.8839 7.63388C16.1183 7.39946 16.25 7.08152 16.25 6.75C16.25 6.41848 16.1183 6.10054 15.8839 5.86612C15.6495 5.6317 15.3315 5.5 15 5.5C14.6685 5.5 14.3505 5.6317 14.1161 5.86612C13.8817 6.10054 13.75 6.41848 13.75 6.75Z" stroke="#262626" stroke-width="1.875" stroke-linecap="round" stroke-linejoin="round"/>
<path d="M22.5 6.75C22.5 7.08152 22.6317 7.39946 22.8661 7.63388C23.1005 7.8683 23.4185 8 23.75 8C24.0815 8 24.3995 7.8683 24.6339 7.63388C24.8683 7.39946 25 7.08152 25 6.75C25 6.41848 24.8683 6.10054 24.6339 5.86612C24.3995 5.6317 24.0815 5.5 23.75 5.5C23.4185 5.5 23.1005 5.6317 22.8661 5.86612C22.6317 6.10054 22.5 6.41848 22.5 6.75Z" stroke="#262626" stroke-width="1.875" stroke-linecap="round" stroke-linejoin="round"/>
<path d="M5 15.5C5 15.8315 5.1317 16.1495 5.36612 16.3839C5.60054 16.6183 5.91848 16.75 6.25 16.75C6.58152 16.75 6.89946 16.6183 7.13388 16.3839C7.3683 16.1495 7.5 15.8315 7.5 15.5C7.5 15.1685 7.3683 14.8505 7.13388 14.6161C6.89946 14.3817 6.58152 14.25 6.25 14.25C5.91848 14.25 5.60054 14.3817 5.36612 14.6161C5.1317 14.8505 5 15.1685 5 15.5Z" stroke="#262626" stroke-width="1.875" stroke-linecap="round" stroke-linejoin="round"/>
<path d="M13.75 15.5C13.75 15.8315 13.8817 16.1495 14.1161 16.3839C14.3505 16.6183 14.6685 16.75 15 16.75C15.3315 16.75 15.6495 16.6183 15.8839 16.3839C16.1183 16.1495 16.25 15.8315 16.25 15.5C16.25 15.1685 16.1183 14.8505 15.8839 14.6161C15.6495 14.3817 15.3315 14.25 15 14.25C14.6685 14.25 14.3505 14.3817 14.1161 14.6161C13.8817 14.8505 13.75 15.1685 13.75 15.5Z" stroke="#262626" stroke-width="1.875" stroke-linecap="round" stroke-linejoin="round"/>
<path d="M22.5 15.5C22.5 15.8315 22.6317 16.1495 22.8661 16.3839C23.1005 16.6183 23.4185 16.75 23.75 16.75C24.0815 16.75 24.3995 16.6183 24.6339 16.3839C24.8683 16.1495 25 15.8315 25 15.5C25 15.1685 24.8683 14.8505 24.6339 14.6161C24.3995 14.3817 24.0815 14.25 23.75 14.25C23.4185 14.25 23.1005 14.3817 22.8661 14.6161C22.6317 14.8505 22.5 15.1685 22.5 15.5Z" stroke="#262626" stroke-width="1.875" stroke-linecap="round" stroke-linejoin="round"/>
<path d="M5 24.25C5 24.5815 5.1317 24.8995 5.36612 25.1339C5.60054 25.3683 5.91848 25.5 6.25 25.5C6.58152 25.5 6.89946 25.3683 7.13388 25.1339C7.3683 24.8995 7.5 24.5815 7.5 24.25C7.5 23.9185 7.3683 23.6005 7.13388 23.3661C6.89946 23.1317 6.58152 23 6.25 23C5.91848 23 5.60054 23.1317 5.36612 23.3661C5.1317 23.6005 5 23.9185 5 24.25Z" stroke="#262626" stroke-width="1.875" stroke-linecap="round" stroke-linejoin="round"/>
<path d="M13.75 24.25C13.75 24.5815 13.8817 24.8995 14.1161 25.1339C14.3505 25.3683 14.6685 25.5 15 25.5C15.3315 25.5 15.6495 25.3683 15.8839 25.1339C16.1183 24.8995 16.25 24.5815 16.25 24.25C16.25 23.9185 16.1183 23.6005 15.8839 23.3661C15.6495 23.1317 15.3315 23 15 23C14.6685 23 14.3505 23.1317 14.1161 23.3661C13.8817 23.6005 13.75 23.9185 13.75 24.25Z" stroke="#262626" stroke-width="1.875" stroke-linecap="round" stroke-linejoin="round"/>
<path d="M22.5 24.25C22.5 24.5815 22.6317 24.8995 22.8661 25.1339C23.1005 25.3683 23.4185 25.5 23.75 25.5C24.0815 25.5 24.3995 25.3683 24.6339 25.1339C24.8683 24.8995 25 24.5815 25 24.25C25 23.9185 24.8683 23.6005 24.6339 23.3661C24.3995 23.1317 24.0815 23 23.75 23C23.4185 23 23.1005 23.1317 22.8661 23.3661C22.6317 23.6005 22.5 23.9185 22.5 24.25Z" stroke="#262626" stroke-width="1.875" stroke-linecap="round" stroke-linejoin="round"/>
</g>
</g>
</svg>
