<svg width="20" height="21" viewBox="0 0 20 21" fill="none" xmlns="http://www.w3.org/2000/svg">
<g id="tabler-icon-player-play-filled">
<path id="Vector" d="M4.99902 4.11776V17.4512C4.99898 17.5995 5.0385 17.7451 5.11351 17.873C5.18852 18.0009 5.29629 18.1065 5.42571 18.1788C5.55514 18.2512 5.70152 18.2877 5.84977 18.2846C5.99801 18.2815 6.14275 18.2389 6.26904 18.1612L17.1025 11.4945C17.2238 11.4199 17.324 11.3155 17.3935 11.1912C17.463 11.0669 17.4995 10.9269 17.4995 10.7845C17.4995 10.6421 17.463 10.502 17.3935 10.3777C17.324 10.2535 17.2238 10.149 17.1025 10.0745L6.26904 3.40775C6.14275 3.33005 5.99801 3.28746 5.84977 3.28436C5.70152 3.28126 5.55514 3.31778 5.42571 3.39013C5.29629 3.46249 5.18852 3.56807 5.11351 3.69597C5.0385 3.82388 4.99898 3.96948 4.99902 4.11776Z" fill="#262626"/>
</g>
</svg>
