<svg width="24" height="24" viewBox="0 0 24 24" fill="none" xmlns="http://www.w3.org/2000/svg">
<g id="tabler-icon-search">
<path id="Vector" d="M20.25 20.25L14.5 14.5M3 9.70833C3 10.5893 3.17352 11.4616 3.51064 12.2755C3.84777 13.0894 4.3419 13.8289 4.96483 14.4518C5.58775 15.0748 6.32727 15.5689 7.14117 15.906C7.95506 16.2432 8.82738 16.4167 9.70833 16.4167C10.5893 16.4167 11.4616 16.2432 12.2755 15.906C13.0894 15.5689 13.8289 15.0748 14.4518 14.4518C15.0748 13.8289 15.5689 13.0894 15.906 12.2755C16.2432 11.4616 16.4167 10.5893 16.4167 9.70833C16.4167 8.82738 16.2432 7.95506 15.906 7.14117C15.5689 6.32727 15.0748 5.58775 14.4518 4.96483C13.8289 4.3419 13.0894 3.84777 12.2755 3.51064C11.4616 3.17352 10.5893 3 9.70833 3C8.82738 3 7.95506 3.17352 7.14117 3.51064C6.32727 3.84777 5.58775 4.3419 4.96483 4.96483C4.3419 5.58775 3.84777 6.32727 3.51064 7.14117C3.17352 7.95506 3 8.82738 3 9.70833Z" stroke="#262626" stroke-width="1.64286" stroke-linecap="round" stroke-linejoin="round"/>
</g>
</svg>
