<svg width="30" height="30" viewBox="0 0 30 30" fill="none" xmlns="http://www.w3.org/2000/svg">
<g id="tabler-icon-brand-tiktok">
<path id="Vector" d="M25.0005 10.4644V14.9466C22.985 14.7467 21.0632 13.9968 19.445 12.7788V17.7789C19.4447 19.1357 19.0622 20.465 18.3413 21.6145C17.6204 22.764 16.5903 23.6871 15.369 24.2782C14.1477 24.8693 12.7846 25.1044 11.4359 24.9566C10.0872 24.8088 8.80733 24.284 7.74306 23.4424C6.67878 22.6008 5.87309 21.4765 5.4183 20.1981C4.9635 18.9198 4.878 17.5392 5.17159 16.2145C5.46517 14.8898 6.12597 13.6747 7.07827 12.7082C8.03057 11.7417 9.23586 11.063 10.5561 10.7499V15.5566C10.1773 15.8407 9.87738 16.2169 9.68487 16.6495C9.49237 17.0821 9.41364 17.5568 9.45617 18.0283C9.49869 18.4999 9.66105 18.9528 9.92783 19.344C10.1946 19.7352 10.557 20.0517 10.9805 20.2634C11.404 20.4752 11.8746 20.5752 12.3476 20.5539C12.8206 20.5326 13.2803 20.3907 13.6831 20.1418C14.0859 19.8929 14.4183 19.5451 14.6489 19.1316C14.8795 18.718 15.0005 18.2524 15.0005 17.7789V5.00098H19.5372C19.7685 6.36588 20.4187 7.62503 21.3976 8.60393C22.3765 9.58283 23.6356 10.233 25.0005 10.4644Z" stroke="#ECE0FF" stroke-width="2.22223" stroke-linecap="round" stroke-linejoin="round"/>
</g>
</svg>
