<svg width="30" height="30" viewBox="0 0 30 30" fill="none" xmlns="http://www.w3.org/2000/svg">
<g id="tabler-icon-brand-youtube">
<g id="Vector">
<path d="M3.75049 11.25C3.75049 9.92392 4.27727 8.65215 5.21496 7.71447C6.15264 6.77679 7.42441 6.25 8.7505 6.25H21.2505C22.5766 6.25 23.8484 6.77679 24.7861 7.71447C25.7237 8.65215 26.2505 9.92392 26.2505 11.25V18.75C26.2505 20.0761 25.7237 21.3479 24.7861 22.2856C23.8484 23.2232 22.5766 23.75 21.2505 23.75H8.7505C7.42441 23.75 6.15264 23.2232 5.21496 22.2856C4.27727 21.3479 3.75049 20.0761 3.75049 18.75V11.25Z" stroke="#ECE0FF" stroke-width="2.50001" stroke-linecap="round" stroke-linejoin="round"/>
<path d="M12.5005 11.25L18.7505 15L12.5005 18.75V11.25Z" stroke="#ECE0FF" stroke-width="2.50001" stroke-linecap="round" stroke-linejoin="round"/>
</g>
</g>
</svg>
