<svg width="30" height="30" viewBox="0 0 30 30" fill="none" xmlns="http://www.w3.org/2000/svg">
<g id="tabler-icon-brand-instagram">
<path id="Vector" d="M20.625 9.37501V9.38751M5 10C5 8.67392 5.52679 7.40215 6.46447 6.46447C7.40215 5.52679 8.67392 5 10 5H20C21.3261 5 22.5979 5.52679 23.5356 6.46447C24.4733 7.40215 25 8.67392 25 10V20C25 21.3261 24.4733 22.5979 23.5356 23.5356C22.5979 24.4733 21.3261 25 20 25H10C8.67392 25 7.40215 24.4733 6.46447 23.5356C5.52679 22.5979 5 21.3261 5 20V10ZM11.25 15C11.25 15.9946 11.6451 16.9484 12.3484 17.6517C13.0516 18.3549 14.0055 18.75 15 18.75C15.9946 18.75 16.9484 18.3549 17.6517 17.6517C18.3549 16.9484 18.75 15.9946 18.75 15C18.75 14.0055 18.3549 13.0516 17.6517 12.3484C16.9484 11.6451 15.9946 11.25 15 11.25C14.0055 11.25 13.0516 11.6451 12.3484 12.3484C11.6451 13.0516 11.25 14.0055 11.25 15Z" stroke="#ECE0FF" stroke-width="2.50001" stroke-linecap="round" stroke-linejoin="round"/>
</g>
</svg>
